<svg xmlns="http://www.w3.org/2000/svg" version="1.1" xmlns:xlink="http://www.w3.org/1999/xlink" width="512" height="512"><svg width="512" height="512" viewBox="0 0 512 512" fill="none" xmlns="http://www.w3.org/2000/svg">
<path d="M0 50C0 22.3858 22.3858 0 50 0H462C489.614 0 512 22.3858 512 50V462C512 489.614 489.614 512 462 512H50C22.3858 512 0 489.614 0 462V50Z" fill="#BEE3F8"></path>
<path d="M106 347V322H158.125C169.958 322 178.958 319.625 185.125 314.875C191.375 310.125 194.5 303.208 194.5 294.125V293.875C194.5 287.792 193.042 282.708 190.125 278.625C187.292 274.458 183.042 271.375 177.375 269.375C171.708 267.292 164.667 266.25 156.25 266.25H106V242.875H151.125C162.792 242.875 171.667 240.583 177.75 236C183.833 231.417 186.875 224.833 186.875 216.25V216C186.875 208.25 184.208 202.25 178.875 198C173.625 193.75 166.208 191.625 156.625 191.625H106V166.625H164.75C175.75 166.625 185.25 168.5 193.25 172.25C201.333 175.917 207.583 181.125 212 187.875C216.5 194.625 218.75 202.583 218.75 211.75V212C218.75 218.5 217.25 224.583 214.25 230.25C211.333 235.833 207.292 240.542 202.125 244.375C196.958 248.125 191.167 250.458 184.75 251.375V252C193.167 252.75 200.583 255.083 207 259C213.417 262.917 218.417 268.042 222 274.375C225.583 280.625 227.375 287.75 227.375 295.75V296C227.375 306.5 224.875 315.583 219.875 323.25C214.875 330.833 207.75 336.708 198.5 340.875C189.333 344.958 178.333 347 165.5 347H106ZM89.875 347V166.625H122.125V347H89.875Z" fill="#2B6CB0"></path>
<path d="M250.375 347V166.625H282.625V347H250.375Z" fill="#2B6CB0"></path>
<path d="M314.375 347V166.625H380.25C398.25 166.625 413.625 170.125 426.375 177.125C439.125 184.125 448.917 194.292 455.75 207.625C462.583 220.958 466 237.125 466 256.125V256.375C466 275.375 462.583 291.667 455.75 305.25C449 318.75 439.208 329.083 426.375 336.25C413.625 343.417 398.25 347 380.25 347H314.375ZM346.625 319.875H376.875C389.042 319.875 399.292 317.458 407.625 312.625C415.958 307.708 422.292 300.583 426.625 291.25C430.958 281.833 433.125 270.25 433.125 256.5V256.25C433.125 242.833 430.917 231.458 426.5 222.125C422.167 212.792 415.792 205.75 407.375 201C399.042 196.167 388.875 193.75 376.875 193.75H346.625V319.875Z" fill="#2B6CB0"></path>
</svg><style>@media (prefers-color-scheme: light) { :root { filter: none; } }
@media (prefers-color-scheme: dark) { :root { filter: none; } }
</style></svg>